<svg xmlns="http://www.w3.org/2000/svg" viewBox="0 0 400 260" width="100%" height="100%" class="circuit-miniature">
  <defs>
    <filter id="glow-autocross" x="-20%" y="-20%" width="140%" height="140%">
      <feGaussianBlur stdDeviation="4" result="blur" />
      <feMerge>
        <feMergeNode in="blur" />
        <feMergeNode in="SourceGraphic" />
      </feMerge>
    </filter>
  </defs>
  <!-- Background Grid Accent -->
  <rect width="400" height="260" fill="#0b0f19" rx="12" />
  <path d="M 0 65 H 400 M 0 130 H 400 M 0 195 H 400 M 100 0 V 260 M 200 0 V 260 M 300 0 V 260" stroke="#1e293b" stroke-width="0.75" stroke-dasharray="3 3" opacity="0.4" />

  <!-- Outer Glow Track -->
  <path d="M 74.4 221.8 L 77.2 223.4 L 81.0 224.0 L 85.5 223.9 L 90.3 223.5 L 95.1 222.9 L 99.6 222.5 L 103.8 222.3 L 107.9 221.9 L 112.1 221.4 L 116.2 220.9 L 120.3 220.2 L 124.4 219.5 L 128.5 218.6 L 132.6 217.6 L 136.6 216.5 L 140.6 215.3 L 144.7 214.1 L 148.7 213.0 L 152.8 211.8 L 156.8 210.7 L 160.8 209.5 L 164.9 208.3 L 168.9 207.2 L 173.0 206.2 L 177.1 205.4 L 181.3 204.6 L 185.4 203.9 L 189.6 203.2 L 193.7 202.7 L 197.9 202.3 L 202.1 201.9 L 206.3 201.7 L 210.5 201.5 L 214.7 201.5 L 218.8 201.5 L 222.9 201.5 L 226.9 201.8 L 230.8 202.2 L 234.7 202.8 L 238.5 203.3 L 242.4 203.5 L 246.3 203.3 L 250.2 202.6 L 254.1 201.6 L 258.1 200.3 L 262.0 198.9 L 265.9 197.4 L 269.8 195.9 L 273.6 194.5 L 277.4 193.1 L 281.2 191.6 L 285.0 190.1 L 288.7 188.3 L 292.2 186.3 L 295.8 184.1 L 299.3 181.8 L 302.8 179.2 L 306.1 176.5 L 309.2 173.7 L 311.9 170.6 L 314.4 167.3 L 316.6 163.8 L 318.5 160.1 L 320.3 156.2 L 321.8 152.4 L 323.2 148.5 L 324.7 144.5 L 326.2 140.3 L 327.6 136.1 L 328.5 132.0 L 328.6 128.2 L 327.8 124.8 L 325.5 122.2 L 321.9 120.1 L 317.6 118.3 L 313.1 116.6 L 309.1 114.5 L 306.2 111.9 L 304.6 108.5 L 303.7 104.6 L 303.4 100.5 L 303.1 96.2 L 302.6 92.1 L 301.3 88.3 L 299.2 84.9 L 296.6 81.8 L 293.7 78.8 L 290.7 75.8 L 287.8 72.7 L 285.1 69.5 L 282.8 65.9 L 280.7 62.2 L 278.6 58.3 L 276.5 54.6 L 274.3 51.1 L 271.9 48.0 L 269.3 45.2 L 266.7 42.4 L 263.9 39.8 L 261.0 37.8 L 258.0 36.4 L 254.8 36.0 L 251.6 36.8 L 248.1 38.6 L 244.5 41.2 L 240.9 44.1 L 237.3 47.1 L 233.7 49.6 L 230.2 51.9 L 226.7 54.2 L 223.1 56.5 L 219.6 58.8 L 216.0 61.1 L 212.5 63.3 L 209.0 65.6 L 205.4 67.9 L 201.9 70.1 L 198.4 72.4 L 194.8 74.7 L 191.3 77.0 L 187.8 79.3 L 184.3 81.6 L 180.8 83.9 L 177.3 86.2 L 173.8 88.5 L 170.3 90.9 L 166.8 93.2 L 163.2 95.5 L 159.6 97.9 L 156.1 100.2 L 152.7 102.6 L 149.5 105.1 L 146.1 107.6 L 142.4 110.2 L 138.9 112.8 L 135.8 115.4 L 133.6 118.1 L 132.7 120.8 L 133.4 123.4 L 135.7 126.1 L 138.8 128.7 L 142.1 131.4 L 145.0 134.1 L 146.7 136.9 L 147.4 140.1 L 147.6 143.6 L 147.4 147.1 L 146.7 150.4 L 145.5 153.2 L 143.9 155.0 L 141.5 155.6 L 138.5 155.1 L 135.0 154.1 L 131.3 153.0 L 127.5 152.3 L 123.8 152.5 L 120.2 153.7 L 116.4 155.5 L 112.5 157.6 L 108.7 160.1 L 105.2 162.6 L 102.0 165.1 L 99.1 167.5 L 96.6 170.1 L 94.3 172.7 L 92.1 175.4 L 89.9 178.1 L 87.6 180.8 L 85.1 183.3 L 82.3 185.7 L 79.5 188.2 L 76.9 190.7 L 74.8 193.5 L 73.3 196.7 L 72.3 200.7 L 71.6 205.3 L 71.4 210.2 L 71.7 214.9 L 72.6 219.0 L 74.4 221.8 Z" fill="none" stroke="#ca8a04" stroke-width="9" stroke-linecap="round" stroke-linejoin="round" opacity="0.3" filter="url(#glow-autocross)" />

  <!-- Track Base Asphalt Ribbon -->
  <path d="M 74.4 221.8 L 77.2 223.4 L 81.0 224.0 L 85.5 223.9 L 90.3 223.5 L 95.1 222.9 L 99.6 222.5 L 103.8 222.3 L 107.9 221.9 L 112.1 221.4 L 116.2 220.9 L 120.3 220.2 L 124.4 219.5 L 128.5 218.6 L 132.6 217.6 L 136.6 216.5 L 140.6 215.3 L 144.7 214.1 L 148.7 213.0 L 152.8 211.8 L 156.8 210.7 L 160.8 209.5 L 164.9 208.3 L 168.9 207.2 L 173.0 206.2 L 177.1 205.4 L 181.3 204.6 L 185.4 203.9 L 189.6 203.2 L 193.7 202.7 L 197.9 202.3 L 202.1 201.9 L 206.3 201.7 L 210.5 201.5 L 214.7 201.5 L 218.8 201.5 L 222.9 201.5 L 226.9 201.8 L 230.8 202.2 L 234.7 202.8 L 238.5 203.3 L 242.4 203.5 L 246.3 203.3 L 250.2 202.6 L 254.1 201.6 L 258.1 200.3 L 262.0 198.9 L 265.9 197.4 L 269.8 195.9 L 273.6 194.5 L 277.4 193.1 L 281.2 191.6 L 285.0 190.1 L 288.7 188.3 L 292.2 186.3 L 295.8 184.1 L 299.3 181.8 L 302.8 179.2 L 306.1 176.5 L 309.2 173.7 L 311.9 170.6 L 314.4 167.3 L 316.6 163.8 L 318.5 160.1 L 320.3 156.2 L 321.8 152.4 L 323.2 148.5 L 324.7 144.5 L 326.2 140.3 L 327.6 136.1 L 328.5 132.0 L 328.6 128.2 L 327.8 124.8 L 325.5 122.2 L 321.9 120.1 L 317.6 118.3 L 313.1 116.6 L 309.1 114.5 L 306.2 111.9 L 304.6 108.5 L 303.7 104.6 L 303.4 100.5 L 303.1 96.2 L 302.6 92.1 L 301.3 88.3 L 299.2 84.9 L 296.6 81.8 L 293.7 78.8 L 290.7 75.8 L 287.8 72.7 L 285.1 69.5 L 282.8 65.9 L 280.7 62.2 L 278.6 58.3 L 276.5 54.6 L 274.3 51.1 L 271.9 48.0 L 269.3 45.2 L 266.7 42.4 L 263.9 39.8 L 261.0 37.8 L 258.0 36.4 L 254.8 36.0 L 251.6 36.8 L 248.1 38.6 L 244.5 41.2 L 240.9 44.1 L 237.3 47.1 L 233.7 49.6 L 230.2 51.9 L 226.7 54.2 L 223.1 56.5 L 219.6 58.8 L 216.0 61.1 L 212.5 63.3 L 209.0 65.6 L 205.4 67.9 L 201.9 70.1 L 198.4 72.4 L 194.8 74.7 L 191.3 77.0 L 187.8 79.3 L 184.3 81.6 L 180.8 83.9 L 177.3 86.2 L 173.8 88.5 L 170.3 90.9 L 166.8 93.2 L 163.2 95.5 L 159.6 97.9 L 156.1 100.2 L 152.7 102.6 L 149.5 105.1 L 146.1 107.6 L 142.4 110.2 L 138.9 112.8 L 135.8 115.4 L 133.6 118.1 L 132.7 120.8 L 133.4 123.4 L 135.7 126.1 L 138.8 128.7 L 142.1 131.4 L 145.0 134.1 L 146.7 136.9 L 147.4 140.1 L 147.6 143.6 L 147.4 147.1 L 146.7 150.4 L 145.5 153.2 L 143.9 155.0 L 141.5 155.6 L 138.5 155.1 L 135.0 154.1 L 131.3 153.0 L 127.5 152.3 L 123.8 152.5 L 120.2 153.7 L 116.4 155.5 L 112.5 157.6 L 108.7 160.1 L 105.2 162.6 L 102.0 165.1 L 99.1 167.5 L 96.6 170.1 L 94.3 172.7 L 92.1 175.4 L 89.9 178.1 L 87.6 180.8 L 85.1 183.3 L 82.3 185.7 L 79.5 188.2 L 76.9 190.7 L 74.8 193.5 L 73.3 196.7 L 72.3 200.7 L 71.6 205.3 L 71.4 210.2 L 71.7 214.9 L 72.6 219.0 L 74.4 221.8 Z" fill="none" stroke="#1e293b" stroke-width="6" stroke-linecap="round" stroke-linejoin="round" />

  <!-- Track Main Neon Racing Line -->
  <path d="M 74.4 221.8 L 77.2 223.4 L 81.0 224.0 L 85.5 223.9 L 90.3 223.5 L 95.1 222.9 L 99.6 222.5 L 103.8 222.3 L 107.9 221.9 L 112.1 221.4 L 116.2 220.9 L 120.3 220.2 L 124.4 219.5 L 128.5 218.6 L 132.6 217.6 L 136.6 216.5 L 140.6 215.3 L 144.7 214.1 L 148.7 213.0 L 152.8 211.8 L 156.8 210.7 L 160.8 209.5 L 164.9 208.3 L 168.9 207.2 L 173.0 206.2 L 177.1 205.4 L 181.3 204.6 L 185.4 203.9 L 189.6 203.2 L 193.7 202.7 L 197.9 202.3 L 202.1 201.9 L 206.3 201.7 L 210.5 201.5 L 214.7 201.5 L 218.8 201.5 L 222.9 201.5 L 226.9 201.8 L 230.8 202.2 L 234.7 202.8 L 238.5 203.3 L 242.4 203.5 L 246.3 203.3 L 250.2 202.6 L 254.1 201.6 L 258.1 200.3 L 262.0 198.9 L 265.9 197.4 L 269.8 195.9 L 273.6 194.5 L 277.4 193.1 L 281.2 191.6 L 285.0 190.1 L 288.7 188.3 L 292.2 186.3 L 295.8 184.1 L 299.3 181.8 L 302.8 179.2 L 306.1 176.5 L 309.2 173.7 L 311.9 170.6 L 314.4 167.3 L 316.6 163.8 L 318.5 160.1 L 320.3 156.2 L 321.8 152.4 L 323.2 148.5 L 324.7 144.5 L 326.2 140.3 L 327.6 136.1 L 328.5 132.0 L 328.6 128.2 L 327.8 124.8 L 325.5 122.2 L 321.9 120.1 L 317.6 118.3 L 313.1 116.6 L 309.1 114.5 L 306.2 111.9 L 304.6 108.5 L 303.7 104.6 L 303.4 100.5 L 303.1 96.2 L 302.6 92.1 L 301.3 88.3 L 299.2 84.9 L 296.6 81.8 L 293.7 78.8 L 290.7 75.8 L 287.8 72.7 L 285.1 69.5 L 282.8 65.9 L 280.7 62.2 L 278.6 58.3 L 276.5 54.6 L 274.3 51.1 L 271.9 48.0 L 269.3 45.2 L 266.7 42.4 L 263.9 39.8 L 261.0 37.8 L 258.0 36.4 L 254.8 36.0 L 251.6 36.8 L 248.1 38.6 L 244.5 41.2 L 240.9 44.1 L 237.3 47.1 L 233.7 49.6 L 230.2 51.9 L 226.7 54.2 L 223.1 56.5 L 219.6 58.8 L 216.0 61.1 L 212.5 63.3 L 209.0 65.6 L 205.4 67.9 L 201.9 70.1 L 198.4 72.4 L 194.8 74.7 L 191.3 77.0 L 187.8 79.3 L 184.3 81.6 L 180.8 83.9 L 177.3 86.2 L 173.8 88.5 L 170.3 90.9 L 166.8 93.2 L 163.2 95.5 L 159.6 97.9 L 156.1 100.2 L 152.7 102.6 L 149.5 105.1 L 146.1 107.6 L 142.4 110.2 L 138.9 112.8 L 135.8 115.4 L 133.6 118.1 L 132.7 120.8 L 133.4 123.4 L 135.7 126.1 L 138.8 128.7 L 142.1 131.4 L 145.0 134.1 L 146.7 136.9 L 147.4 140.1 L 147.6 143.6 L 147.4 147.1 L 146.7 150.4 L 145.5 153.2 L 143.9 155.0 L 141.5 155.6 L 138.5 155.1 L 135.0 154.1 L 131.3 153.0 L 127.5 152.3 L 123.8 152.5 L 120.2 153.7 L 116.4 155.5 L 112.5 157.6 L 108.7 160.1 L 105.2 162.6 L 102.0 165.1 L 99.1 167.5 L 96.6 170.1 L 94.3 172.7 L 92.1 175.4 L 89.9 178.1 L 87.6 180.8 L 85.1 183.3 L 82.3 185.7 L 79.5 188.2 L 76.9 190.7 L 74.8 193.5 L 73.3 196.7 L 72.3 200.7 L 71.6 205.3 L 71.4 210.2 L 71.7 214.9 L 72.6 219.0 L 74.4 221.8 Z" fill="none" stroke="#eab308" stroke-width="2.2" stroke-linecap="round" stroke-linejoin="round" />

  <!-- Start/Finish Timing Gate -->
  <line x1="78.4" y1="214.9" x2="70.4" y2="228.7" stroke="#22c55e" stroke-width="3" stroke-linecap="round" />
  <circle cx="74.4" cy="221.8" r="3.5" fill="#ffffff" stroke="#22c55e" stroke-width="1.5" />
</svg>