<svg xmlns="http://www.w3.org/2000/svg" viewBox="0 0 400 260" width="100%" height="100%" class="circuit-miniature">
  <defs>
    <filter id="glow-rally" x="-20%" y="-20%" width="140%" height="140%">
      <feGaussianBlur stdDeviation="4" result="blur" />
      <feMerge>
        <feMergeNode in="blur" />
        <feMergeNode in="SourceGraphic" />
      </feMerge>
    </filter>
  </defs>
  <!-- Background Grid Accent -->
  <rect width="400" height="260" fill="#0b0f19" rx="12" />
  <path d="M 0 65 H 400 M 0 130 H 400 M 0 195 H 400 M 100 0 V 260 M 200 0 V 260 M 300 0 V 260" stroke="#1e293b" stroke-width="0.75" stroke-dasharray="3 3" opacity="0.4" />

  <!-- Outer Glow Track -->
  <path d="M 95.4 209.5 L 98.6 209.9 L 101.8 209.9 L 105.1 209.8 L 108.5 209.6 L 111.8 209.3 L 115.2 209.0 L 118.5 208.8 L 121.9 208.8 L 125.2 209.0 L 128.5 209.2 L 131.9 209.5 L 135.2 209.9 L 138.5 210.2 L 141.9 210.6 L 145.2 211.0 L 148.5 211.3 L 151.9 211.7 L 155.2 212.0 L 158.5 212.3 L 161.9 212.7 L 165.2 213.0 L 168.5 213.3 L 171.9 213.6 L 175.2 213.9 L 178.6 214.2 L 181.9 214.4 L 185.2 214.7 L 188.6 214.9 L 191.9 215.1 L 195.3 215.4 L 198.6 215.6 L 202.0 215.8 L 205.3 216.1 L 208.7 216.5 L 212.1 216.8 L 215.5 217.2 L 218.8 217.5 L 222.2 217.7 L 225.5 217.7 L 228.8 217.6 L 232.1 217.2 L 235.3 216.4 L 238.6 215.4 L 241.8 214.3 L 245.0 213.4 L 248.2 212.6 L 251.3 212.1 L 254.4 212.0 L 257.4 212.6 L 260.4 213.5 L 263.3 214.8 L 266.2 216.3 L 269.1 217.8 L 272.0 219.3 L 275.0 220.6 L 278.1 221.5 L 281.4 222.2 L 284.7 222.8 L 288.1 223.3 L 291.6 223.7 L 295.0 224.0 L 298.4 224.0 L 301.7 223.8 L 304.9 223.3 L 308.0 222.5 L 311.3 221.4 L 314.5 220.2 L 317.7 218.7 L 320.7 217.0 L 323.3 215.1 L 325.6 213.0 L 327.3 210.7 L 328.6 208.1 L 329.4 205.1 L 329.9 201.9 L 330.1 198.5 L 330.0 195.0 L 329.6 191.5 L 329.0 188.2 L 328.3 185.0 L 327.3 182.0 L 325.9 179.0 L 324.2 176.2 L 322.3 173.3 L 320.3 170.5 L 318.3 167.7 L 316.4 164.8 L 314.5 161.9 L 312.7 159.0 L 310.6 156.1 L 308.4 153.2 L 306.2 150.2 L 304.3 147.3 L 302.7 144.4 L 301.6 141.6 L 301.1 138.7 L 301.4 136.0 L 302.4 133.3 L 303.8 130.6 L 305.7 128.0 L 307.7 125.3 L 309.7 122.7 L 311.5 120.1 L 313.1 117.4 L 314.5 114.7 L 316.2 112.1 L 317.8 109.4 L 319.4 106.7 L 320.8 104.1 L 321.8 101.4 L 322.3 98.7 L 322.2 96.1 L 321.4 93.4 L 319.9 90.8 L 317.9 88.1 L 315.5 85.5 L 313.0 82.9 L 310.4 80.2 L 307.9 77.6 L 305.7 75.0 L 303.6 72.3 L 301.6 69.6 L 299.5 66.9 L 297.5 64.2 L 295.4 61.6 L 293.3 59.0 L 291.2 56.4 L 289.0 53.9 L 286.7 51.4 L 284.4 48.7 L 282.1 45.9 L 279.7 43.2 L 277.3 40.8 L 274.8 38.7 L 272.2 37.2 L 269.5 36.2 L 266.7 36.0 L 263.8 36.4 L 260.7 37.2 L 257.6 38.4 L 254.5 39.9 L 251.4 41.6 L 248.4 43.3 L 245.5 45.0 L 242.7 46.7 L 240.0 48.6 L 237.4 50.6 L 234.8 52.8 L 232.2 55.0 L 229.7 57.2 L 227.1 59.5 L 224.5 61.6 L 221.8 63.7 L 219.2 65.8 L 216.6 67.8 L 214.0 69.9 L 211.3 72.0 L 208.7 74.1 L 206.1 76.2 L 203.4 78.3 L 200.8 80.4 L 198.2 82.4 L 195.6 84.5 L 192.9 86.6 L 190.3 88.7 L 187.7 90.8 L 185.0 92.8 L 182.4 94.9 L 179.8 97.0 L 177.1 99.1 L 174.5 101.1 L 171.9 103.2 L 169.2 105.3 L 166.6 107.4 L 163.9 109.5 L 161.3 111.5 L 158.7 113.6 L 156.0 115.7 L 153.4 117.8 L 150.8 119.9 L 148.2 122.0 L 145.5 124.1 L 142.9 126.1 L 140.3 128.2 L 137.6 130.3 L 135.0 132.4 L 132.4 134.5 L 129.8 136.5 L 127.1 138.6 L 124.5 140.7 L 121.9 142.8 L 119.2 144.9 L 116.6 146.9 L 114.0 149.0 L 111.4 151.1 L 108.7 153.2 L 106.1 155.3 L 103.5 157.4 L 100.8 159.5 L 98.2 161.6 L 95.5 163.6 L 92.6 165.6 L 89.7 167.6 L 86.8 169.6 L 84.1 171.6 L 81.5 173.7 L 79.2 175.9 L 77.3 178.3 L 75.6 180.8 L 73.9 183.7 L 72.4 186.6 L 71.2 189.7 L 70.3 192.6 L 69.9 195.4 L 70.1 198.0 L 70.8 200.1 L 72.4 202.0 L 74.8 203.6 L 77.7 205.0 L 81.0 206.2 L 84.7 207.3 L 88.4 208.2 L 92.0 208.9 L 95.4 209.5 Z" fill="none" stroke="#059669" stroke-width="9" stroke-linecap="round" stroke-linejoin="round" opacity="0.3" filter="url(#glow-rally)" />

  <!-- Track Base Asphalt Ribbon -->
  <path d="M 95.4 209.5 L 98.6 209.9 L 101.8 209.9 L 105.1 209.8 L 108.5 209.6 L 111.8 209.3 L 115.2 209.0 L 118.5 208.8 L 121.9 208.8 L 125.2 209.0 L 128.5 209.2 L 131.9 209.5 L 135.2 209.9 L 138.5 210.2 L 141.9 210.6 L 145.2 211.0 L 148.5 211.3 L 151.9 211.7 L 155.2 212.0 L 158.5 212.3 L 161.9 212.7 L 165.2 213.0 L 168.5 213.3 L 171.9 213.6 L 175.2 213.9 L 178.6 214.2 L 181.9 214.4 L 185.2 214.7 L 188.6 214.9 L 191.9 215.1 L 195.3 215.4 L 198.6 215.6 L 202.0 215.8 L 205.3 216.1 L 208.7 216.5 L 212.1 216.8 L 215.5 217.2 L 218.8 217.5 L 222.2 217.7 L 225.5 217.7 L 228.8 217.6 L 232.1 217.2 L 235.3 216.4 L 238.6 215.4 L 241.8 214.3 L 245.0 213.4 L 248.2 212.6 L 251.3 212.1 L 254.4 212.0 L 257.4 212.6 L 260.4 213.5 L 263.3 214.8 L 266.2 216.3 L 269.1 217.8 L 272.0 219.3 L 275.0 220.6 L 278.1 221.5 L 281.4 222.2 L 284.7 222.8 L 288.1 223.3 L 291.6 223.7 L 295.0 224.0 L 298.4 224.0 L 301.7 223.8 L 304.9 223.3 L 308.0 222.5 L 311.3 221.4 L 314.5 220.2 L 317.7 218.7 L 320.7 217.0 L 323.3 215.1 L 325.6 213.0 L 327.3 210.7 L 328.6 208.1 L 329.4 205.1 L 329.9 201.9 L 330.1 198.5 L 330.0 195.0 L 329.6 191.5 L 329.0 188.2 L 328.3 185.0 L 327.3 182.0 L 325.9 179.0 L 324.2 176.2 L 322.3 173.3 L 320.3 170.5 L 318.3 167.7 L 316.4 164.8 L 314.5 161.9 L 312.7 159.0 L 310.6 156.1 L 308.4 153.2 L 306.2 150.2 L 304.3 147.3 L 302.7 144.4 L 301.6 141.6 L 301.1 138.7 L 301.4 136.0 L 302.4 133.3 L 303.8 130.6 L 305.7 128.0 L 307.7 125.3 L 309.7 122.7 L 311.5 120.1 L 313.1 117.4 L 314.5 114.7 L 316.2 112.1 L 317.8 109.4 L 319.4 106.7 L 320.8 104.1 L 321.8 101.4 L 322.3 98.7 L 322.2 96.1 L 321.4 93.4 L 319.9 90.8 L 317.9 88.1 L 315.5 85.5 L 313.0 82.9 L 310.4 80.2 L 307.9 77.6 L 305.7 75.0 L 303.6 72.3 L 301.6 69.6 L 299.5 66.9 L 297.5 64.2 L 295.4 61.6 L 293.3 59.0 L 291.2 56.4 L 289.0 53.9 L 286.7 51.4 L 284.4 48.7 L 282.1 45.9 L 279.7 43.2 L 277.3 40.8 L 274.8 38.7 L 272.2 37.2 L 269.5 36.2 L 266.7 36.0 L 263.8 36.4 L 260.7 37.2 L 257.6 38.4 L 254.5 39.9 L 251.4 41.6 L 248.4 43.3 L 245.5 45.0 L 242.7 46.7 L 240.0 48.6 L 237.4 50.6 L 234.8 52.8 L 232.2 55.0 L 229.7 57.2 L 227.1 59.5 L 224.5 61.6 L 221.8 63.7 L 219.2 65.8 L 216.6 67.8 L 214.0 69.9 L 211.3 72.0 L 208.7 74.1 L 206.1 76.2 L 203.4 78.3 L 200.8 80.4 L 198.2 82.4 L 195.6 84.5 L 192.9 86.6 L 190.3 88.7 L 187.7 90.8 L 185.0 92.8 L 182.4 94.9 L 179.8 97.0 L 177.1 99.1 L 174.5 101.1 L 171.9 103.2 L 169.2 105.3 L 166.6 107.4 L 163.9 109.5 L 161.3 111.5 L 158.7 113.6 L 156.0 115.7 L 153.4 117.8 L 150.8 119.9 L 148.2 122.0 L 145.5 124.1 L 142.9 126.1 L 140.3 128.2 L 137.6 130.3 L 135.0 132.4 L 132.4 134.5 L 129.8 136.5 L 127.1 138.6 L 124.5 140.7 L 121.9 142.8 L 119.2 144.9 L 116.6 146.9 L 114.0 149.0 L 111.4 151.1 L 108.7 153.2 L 106.1 155.3 L 103.5 157.4 L 100.8 159.5 L 98.2 161.6 L 95.5 163.6 L 92.6 165.6 L 89.7 167.6 L 86.8 169.6 L 84.1 171.6 L 81.5 173.7 L 79.2 175.9 L 77.3 178.3 L 75.6 180.8 L 73.9 183.7 L 72.4 186.6 L 71.2 189.7 L 70.3 192.6 L 69.9 195.4 L 70.1 198.0 L 70.8 200.1 L 72.4 202.0 L 74.8 203.6 L 77.7 205.0 L 81.0 206.2 L 84.7 207.3 L 88.4 208.2 L 92.0 208.9 L 95.4 209.5 Z" fill="none" stroke="#1e293b" stroke-width="6" stroke-linecap="round" stroke-linejoin="round" />

  <!-- Track Main Neon Racing Line -->
  <path d="M 95.4 209.5 L 98.6 209.9 L 101.8 209.9 L 105.1 209.8 L 108.5 209.6 L 111.8 209.3 L 115.2 209.0 L 118.5 208.8 L 121.9 208.8 L 125.2 209.0 L 128.5 209.2 L 131.9 209.5 L 135.2 209.9 L 138.5 210.2 L 141.9 210.6 L 145.2 211.0 L 148.5 211.3 L 151.9 211.7 L 155.2 212.0 L 158.5 212.3 L 161.9 212.7 L 165.2 213.0 L 168.5 213.3 L 171.9 213.6 L 175.2 213.9 L 178.6 214.2 L 181.9 214.4 L 185.2 214.7 L 188.6 214.9 L 191.9 215.1 L 195.3 215.4 L 198.6 215.6 L 202.0 215.8 L 205.3 216.1 L 208.7 216.5 L 212.1 216.8 L 215.5 217.2 L 218.8 217.5 L 222.2 217.7 L 225.5 217.7 L 228.8 217.6 L 232.1 217.2 L 235.3 216.4 L 238.6 215.4 L 241.8 214.3 L 245.0 213.4 L 248.2 212.6 L 251.3 212.1 L 254.4 212.0 L 257.4 212.6 L 260.4 213.5 L 263.3 214.8 L 266.2 216.3 L 269.1 217.8 L 272.0 219.3 L 275.0 220.6 L 278.1 221.5 L 281.4 222.2 L 284.7 222.8 L 288.1 223.3 L 291.6 223.7 L 295.0 224.0 L 298.4 224.0 L 301.7 223.8 L 304.9 223.3 L 308.0 222.5 L 311.3 221.4 L 314.5 220.2 L 317.7 218.7 L 320.7 217.0 L 323.3 215.1 L 325.6 213.0 L 327.3 210.7 L 328.6 208.1 L 329.4 205.1 L 329.9 201.9 L 330.1 198.5 L 330.0 195.0 L 329.6 191.5 L 329.0 188.2 L 328.3 185.0 L 327.3 182.0 L 325.9 179.0 L 324.2 176.2 L 322.3 173.3 L 320.3 170.5 L 318.3 167.7 L 316.4 164.8 L 314.5 161.9 L 312.7 159.0 L 310.6 156.1 L 308.4 153.2 L 306.2 150.2 L 304.3 147.3 L 302.7 144.4 L 301.6 141.6 L 301.1 138.7 L 301.4 136.0 L 302.4 133.3 L 303.8 130.6 L 305.7 128.0 L 307.7 125.3 L 309.7 122.7 L 311.5 120.1 L 313.1 117.4 L 314.5 114.7 L 316.2 112.1 L 317.8 109.4 L 319.4 106.7 L 320.8 104.1 L 321.8 101.4 L 322.3 98.7 L 322.2 96.1 L 321.4 93.4 L 319.9 90.8 L 317.9 88.1 L 315.5 85.5 L 313.0 82.9 L 310.4 80.2 L 307.9 77.6 L 305.7 75.0 L 303.6 72.3 L 301.6 69.6 L 299.5 66.9 L 297.5 64.2 L 295.4 61.6 L 293.3 59.0 L 291.2 56.4 L 289.0 53.9 L 286.7 51.4 L 284.4 48.7 L 282.1 45.9 L 279.7 43.2 L 277.3 40.8 L 274.8 38.7 L 272.2 37.2 L 269.5 36.2 L 266.7 36.0 L 263.8 36.4 L 260.7 37.2 L 257.6 38.4 L 254.5 39.9 L 251.4 41.6 L 248.4 43.3 L 245.5 45.0 L 242.7 46.7 L 240.0 48.6 L 237.4 50.6 L 234.8 52.8 L 232.2 55.0 L 229.7 57.2 L 227.1 59.5 L 224.5 61.6 L 221.8 63.7 L 219.2 65.8 L 216.6 67.8 L 214.0 69.9 L 211.3 72.0 L 208.7 74.1 L 206.1 76.2 L 203.4 78.3 L 200.8 80.4 L 198.2 82.4 L 195.6 84.5 L 192.9 86.6 L 190.3 88.7 L 187.7 90.8 L 185.0 92.8 L 182.4 94.9 L 179.8 97.0 L 177.1 99.1 L 174.5 101.1 L 171.9 103.2 L 169.2 105.3 L 166.6 107.4 L 163.9 109.5 L 161.3 111.5 L 158.7 113.6 L 156.0 115.7 L 153.4 117.8 L 150.8 119.9 L 148.2 122.0 L 145.5 124.1 L 142.9 126.1 L 140.3 128.2 L 137.6 130.3 L 135.0 132.4 L 132.4 134.5 L 129.8 136.5 L 127.1 138.6 L 124.5 140.7 L 121.9 142.8 L 119.2 144.9 L 116.6 146.9 L 114.0 149.0 L 111.4 151.1 L 108.7 153.2 L 106.1 155.3 L 103.5 157.4 L 100.8 159.5 L 98.2 161.6 L 95.5 163.6 L 92.6 165.6 L 89.7 167.6 L 86.8 169.6 L 84.1 171.6 L 81.5 173.7 L 79.2 175.9 L 77.3 178.3 L 75.6 180.8 L 73.9 183.7 L 72.4 186.6 L 71.2 189.7 L 70.3 192.6 L 69.9 195.4 L 70.1 198.0 L 70.8 200.1 L 72.4 202.0 L 74.8 203.6 L 77.7 205.0 L 81.0 206.2 L 84.7 207.3 L 88.4 208.2 L 92.0 208.9 L 95.4 209.5 Z" fill="none" stroke="#10b981" stroke-width="2.2" stroke-linecap="round" stroke-linejoin="round" />

  <!-- Start/Finish Timing Gate -->
  <line x1="96.4" y1="201.6" x2="94.4" y2="217.4" stroke="#22c55e" stroke-width="3" stroke-linecap="round" />
  <circle cx="95.4" cy="209.5" r="3.5" fill="#ffffff" stroke="#22c55e" stroke-width="1.5" />
</svg>