<svg xmlns="http://www.w3.org/2000/svg" viewBox="0 0 400 260" width="100%" height="100%" class="circuit-miniature">
  <defs>
    <filter id="glow-offroad" x="-20%" y="-20%" width="140%" height="140%">
      <feGaussianBlur stdDeviation="4" result="blur" />
      <feMerge>
        <feMergeNode in="blur" />
        <feMergeNode in="SourceGraphic" />
      </feMerge>
    </filter>
  </defs>
  <!-- Background Grid Accent -->
  <rect width="400" height="260" fill="#0b0f19" rx="12" />
  <path d="M 0 65 H 400 M 0 130 H 400 M 0 195 H 400 M 100 0 V 260 M 200 0 V 260 M 300 0 V 260" stroke="#1e293b" stroke-width="0.75" stroke-dasharray="3 3" opacity="0.4" />

  <!-- Outer Glow Track -->
  <path d="M 138.7 219.7 L 142.1 221.3 L 145.9 222.4 L 150.0 223.1 L 154.2 223.5 L 158.4 223.7 L 162.5 223.9 L 166.5 224.0 L 170.6 223.9 L 174.6 223.6 L 178.7 223.2 L 182.7 222.8 L 186.8 222.3 L 190.9 221.9 L 195.2 221.6 L 199.5 221.2 L 203.6 220.6 L 207.4 219.6 L 210.7 218.2 L 213.8 216.0 L 217.0 213.1 L 219.8 209.8 L 222.0 206.6 L 223.2 203.7 L 223.2 201.7 L 221.6 200.4 L 218.6 199.6 L 214.7 199.3 L 210.3 199.2 L 205.9 199.3 L 201.8 199.4 L 197.9 199.7 L 193.9 200.3 L 189.9 201.1 L 185.9 201.8 L 181.8 202.4 L 177.7 202.7 L 173.7 202.7 L 169.5 202.5 L 165.3 202.3 L 161.3 201.8 L 157.3 201.0 L 153.6 199.9 L 149.7 198.4 L 145.6 196.3 L 141.5 194.0 L 138.1 191.7 L 135.8 189.6 L 134.9 187.8 L 135.9 186.3 L 138.5 184.8 L 142.1 183.6 L 146.3 182.6 L 150.6 182.1 L 154.4 182.2 L 157.9 183.2 L 161.5 185.2 L 165.2 187.6 L 168.9 190.1 L 172.6 191.9 L 176.3 192.8 L 179.9 192.6 L 183.6 191.8 L 187.3 190.4 L 191.0 188.7 L 194.5 186.7 L 197.8 184.6 L 200.9 182.1 L 203.8 179.0 L 206.5 175.7 L 209.2 172.5 L 212.1 169.7 L 215.3 167.6 L 218.8 166.3 L 222.6 165.4 L 226.5 165.0 L 230.5 165.0 L 234.5 165.2 L 238.3 165.7 L 242.3 167.0 L 246.4 169.1 L 250.5 171.5 L 254.4 173.6 L 257.9 175.1 L 260.7 175.2 L 262.9 173.8 L 264.5 171.4 L 265.7 168.3 L 266.5 164.7 L 267.1 160.9 L 267.4 157.2 L 267.4 153.6 L 266.8 149.7 L 266.0 145.7 L 265.1 141.5 L 264.4 137.4 L 264.0 133.3 L 264.1 129.3 L 264.5 125.3 L 265.0 121.2 L 265.5 117.2 L 266.0 113.1 L 266.4 109.1 L 266.5 105.0 L 266.5 100.9 L 266.4 96.9 L 266.3 92.8 L 266.4 88.7 L 266.6 84.7 L 267.1 80.7 L 267.8 76.7 L 268.6 72.7 L 269.5 68.7 L 270.4 64.8 L 271.2 60.8 L 272.2 56.5 L 273.5 51.7 L 274.8 47.0 L 275.8 42.7 L 276.4 39.2 L 276.2 36.9 L 275.0 36.0 L 273.1 36.0 L 270.6 36.9 L 268.0 38.4 L 265.5 40.4 L 263.4 42.8 L 261.9 45.6 L 260.5 49.2 L 259.3 53.3 L 258.2 57.6 L 257.1 61.9 L 255.9 65.9 L 254.6 69.8 L 253.4 73.7 L 252.1 77.5 L 250.9 81.4 L 249.6 85.2 L 248.3 89.1 L 247.1 93.0 L 245.8 96.8 L 244.6 100.7 L 243.3 104.5 L 242.1 108.4 L 240.8 112.3 L 239.6 116.2 L 238.4 120.1 L 237.2 124.0 L 236.0 127.9 L 234.6 131.7 L 233.1 135.4 L 231.4 139.1 L 229.7 142.9 L 227.9 146.6 L 225.9 150.1 L 223.6 153.2 L 220.9 155.9 L 217.8 158.1 L 214.2 159.9 L 210.4 161.3 L 206.5 162.5 L 202.5 163.5 L 198.5 164.3 L 194.5 164.8 L 190.5 164.9 L 186.4 164.9 L 182.3 164.7 L 178.2 164.7 L 174.2 164.8 L 170.1 165.1 L 166.1 165.4 L 162.0 165.7 L 158.0 166.2 L 154.0 166.9 L 150.2 167.8 L 146.2 169.0 L 142.2 170.3 L 138.1 171.8 L 134.4 173.5 L 131.1 175.6 L 128.5 178.1 L 126.6 181.2 L 125.1 184.9 L 124.1 188.9 L 123.6 193.0 L 123.6 197.1 L 124.2 200.8 L 125.4 204.3 L 127.3 207.9 L 129.7 211.4 L 132.5 214.6 L 135.5 217.4 L 138.7 219.7 Z" fill="none" stroke="#d97706" stroke-width="9" stroke-linecap="round" stroke-linejoin="round" opacity="0.3" filter="url(#glow-offroad)" />

  <!-- Track Base Asphalt Ribbon -->
  <path d="M 138.7 219.7 L 142.1 221.3 L 145.9 222.4 L 150.0 223.1 L 154.2 223.5 L 158.4 223.7 L 162.5 223.9 L 166.5 224.0 L 170.6 223.9 L 174.6 223.6 L 178.7 223.2 L 182.7 222.8 L 186.8 222.3 L 190.9 221.9 L 195.2 221.6 L 199.5 221.2 L 203.6 220.6 L 207.4 219.6 L 210.7 218.2 L 213.8 216.0 L 217.0 213.1 L 219.8 209.8 L 222.0 206.6 L 223.2 203.7 L 223.2 201.7 L 221.6 200.4 L 218.6 199.6 L 214.7 199.3 L 210.3 199.2 L 205.9 199.3 L 201.8 199.4 L 197.9 199.7 L 193.9 200.3 L 189.9 201.1 L 185.9 201.8 L 181.8 202.4 L 177.7 202.7 L 173.7 202.7 L 169.5 202.5 L 165.3 202.3 L 161.3 201.8 L 157.3 201.0 L 153.6 199.9 L 149.7 198.4 L 145.6 196.3 L 141.5 194.0 L 138.1 191.7 L 135.8 189.6 L 134.9 187.8 L 135.9 186.3 L 138.5 184.8 L 142.1 183.6 L 146.3 182.6 L 150.6 182.1 L 154.4 182.2 L 157.9 183.2 L 161.5 185.2 L 165.2 187.6 L 168.9 190.1 L 172.6 191.9 L 176.3 192.8 L 179.9 192.6 L 183.6 191.8 L 187.3 190.4 L 191.0 188.7 L 194.5 186.7 L 197.8 184.6 L 200.9 182.1 L 203.8 179.0 L 206.5 175.7 L 209.2 172.5 L 212.1 169.7 L 215.3 167.6 L 218.8 166.3 L 222.6 165.4 L 226.5 165.0 L 230.5 165.0 L 234.5 165.2 L 238.3 165.7 L 242.3 167.0 L 246.4 169.1 L 250.5 171.5 L 254.4 173.6 L 257.9 175.1 L 260.7 175.2 L 262.9 173.8 L 264.5 171.4 L 265.7 168.3 L 266.5 164.7 L 267.1 160.9 L 267.4 157.2 L 267.4 153.6 L 266.8 149.7 L 266.0 145.7 L 265.1 141.5 L 264.4 137.4 L 264.0 133.3 L 264.1 129.3 L 264.5 125.3 L 265.0 121.2 L 265.5 117.2 L 266.0 113.1 L 266.4 109.1 L 266.5 105.0 L 266.5 100.9 L 266.4 96.9 L 266.3 92.8 L 266.4 88.7 L 266.6 84.7 L 267.1 80.7 L 267.8 76.7 L 268.6 72.7 L 269.5 68.7 L 270.4 64.8 L 271.2 60.8 L 272.2 56.5 L 273.5 51.7 L 274.8 47.0 L 275.8 42.7 L 276.4 39.2 L 276.2 36.9 L 275.0 36.0 L 273.1 36.0 L 270.6 36.9 L 268.0 38.4 L 265.5 40.4 L 263.4 42.8 L 261.9 45.6 L 260.5 49.2 L 259.3 53.3 L 258.2 57.6 L 257.1 61.9 L 255.9 65.9 L 254.6 69.8 L 253.4 73.7 L 252.1 77.5 L 250.9 81.4 L 249.6 85.2 L 248.3 89.1 L 247.1 93.0 L 245.8 96.8 L 244.6 100.7 L 243.3 104.5 L 242.1 108.4 L 240.8 112.3 L 239.6 116.2 L 238.4 120.1 L 237.2 124.0 L 236.0 127.9 L 234.6 131.7 L 233.1 135.4 L 231.4 139.1 L 229.7 142.9 L 227.9 146.6 L 225.9 150.1 L 223.6 153.2 L 220.9 155.9 L 217.8 158.1 L 214.2 159.9 L 210.4 161.3 L 206.5 162.5 L 202.5 163.5 L 198.5 164.3 L 194.5 164.8 L 190.5 164.9 L 186.4 164.9 L 182.3 164.7 L 178.2 164.7 L 174.2 164.8 L 170.1 165.1 L 166.1 165.4 L 162.0 165.7 L 158.0 166.2 L 154.0 166.9 L 150.2 167.8 L 146.2 169.0 L 142.2 170.3 L 138.1 171.8 L 134.4 173.5 L 131.1 175.6 L 128.5 178.1 L 126.6 181.2 L 125.1 184.9 L 124.1 188.9 L 123.6 193.0 L 123.6 197.1 L 124.2 200.8 L 125.4 204.3 L 127.3 207.9 L 129.7 211.4 L 132.5 214.6 L 135.5 217.4 L 138.7 219.7 Z" fill="none" stroke="#1e293b" stroke-width="6" stroke-linecap="round" stroke-linejoin="round" />

  <!-- Track Main Neon Racing Line -->
  <path d="M 138.7 219.7 L 142.1 221.3 L 145.9 222.4 L 150.0 223.1 L 154.2 223.5 L 158.4 223.7 L 162.5 223.9 L 166.5 224.0 L 170.6 223.9 L 174.6 223.6 L 178.7 223.2 L 182.7 222.8 L 186.8 222.3 L 190.9 221.9 L 195.2 221.6 L 199.5 221.2 L 203.6 220.6 L 207.4 219.6 L 210.7 218.2 L 213.8 216.0 L 217.0 213.1 L 219.8 209.8 L 222.0 206.6 L 223.2 203.7 L 223.2 201.7 L 221.6 200.4 L 218.6 199.6 L 214.7 199.3 L 210.3 199.2 L 205.9 199.3 L 201.8 199.4 L 197.9 199.7 L 193.9 200.3 L 189.9 201.1 L 185.9 201.8 L 181.8 202.4 L 177.7 202.7 L 173.7 202.7 L 169.5 202.5 L 165.3 202.3 L 161.3 201.8 L 157.3 201.0 L 153.6 199.9 L 149.7 198.4 L 145.6 196.3 L 141.5 194.0 L 138.1 191.7 L 135.8 189.6 L 134.9 187.8 L 135.9 186.3 L 138.5 184.8 L 142.1 183.6 L 146.3 182.6 L 150.6 182.1 L 154.4 182.2 L 157.9 183.2 L 161.5 185.2 L 165.2 187.6 L 168.9 190.1 L 172.6 191.9 L 176.3 192.8 L 179.9 192.6 L 183.6 191.8 L 187.3 190.4 L 191.0 188.7 L 194.5 186.7 L 197.8 184.6 L 200.9 182.1 L 203.8 179.0 L 206.5 175.7 L 209.2 172.5 L 212.1 169.7 L 215.3 167.6 L 218.8 166.3 L 222.6 165.4 L 226.5 165.0 L 230.5 165.0 L 234.5 165.2 L 238.3 165.7 L 242.3 167.0 L 246.4 169.1 L 250.5 171.5 L 254.4 173.6 L 257.9 175.1 L 260.7 175.2 L 262.9 173.8 L 264.5 171.4 L 265.7 168.3 L 266.5 164.7 L 267.1 160.9 L 267.4 157.2 L 267.4 153.6 L 266.8 149.7 L 266.0 145.7 L 265.1 141.5 L 264.4 137.4 L 264.0 133.3 L 264.1 129.3 L 264.5 125.3 L 265.0 121.2 L 265.5 117.2 L 266.0 113.1 L 266.4 109.1 L 266.5 105.0 L 266.5 100.9 L 266.4 96.9 L 266.3 92.8 L 266.4 88.7 L 266.6 84.7 L 267.1 80.7 L 267.8 76.7 L 268.6 72.7 L 269.5 68.7 L 270.4 64.8 L 271.2 60.8 L 272.2 56.5 L 273.5 51.7 L 274.8 47.0 L 275.8 42.7 L 276.4 39.2 L 276.2 36.9 L 275.0 36.0 L 273.1 36.0 L 270.6 36.9 L 268.0 38.4 L 265.5 40.4 L 263.4 42.8 L 261.9 45.6 L 260.5 49.2 L 259.3 53.3 L 258.2 57.6 L 257.1 61.9 L 255.9 65.9 L 254.6 69.8 L 253.4 73.7 L 252.1 77.5 L 250.9 81.4 L 249.6 85.2 L 248.3 89.1 L 247.1 93.0 L 245.8 96.8 L 244.6 100.7 L 243.3 104.5 L 242.1 108.4 L 240.8 112.3 L 239.6 116.2 L 238.4 120.1 L 237.2 124.0 L 236.0 127.9 L 234.6 131.7 L 233.1 135.4 L 231.4 139.1 L 229.7 142.9 L 227.9 146.6 L 225.9 150.1 L 223.6 153.2 L 220.9 155.9 L 217.8 158.1 L 214.2 159.9 L 210.4 161.3 L 206.5 162.5 L 202.5 163.5 L 198.5 164.3 L 194.5 164.8 L 190.5 164.9 L 186.4 164.9 L 182.3 164.7 L 178.2 164.7 L 174.2 164.8 L 170.1 165.1 L 166.1 165.4 L 162.0 165.7 L 158.0 166.2 L 154.0 166.9 L 150.2 167.8 L 146.2 169.0 L 142.2 170.3 L 138.1 171.8 L 134.4 173.5 L 131.1 175.6 L 128.5 178.1 L 126.6 181.2 L 125.1 184.9 L 124.1 188.9 L 123.6 193.0 L 123.6 197.1 L 124.2 200.8 L 125.4 204.3 L 127.3 207.9 L 129.7 211.4 L 132.5 214.6 L 135.5 217.4 L 138.7 219.7 Z" fill="none" stroke="#f59e0b" stroke-width="2.2" stroke-linecap="round" stroke-linejoin="round" />

  <!-- Start/Finish Timing Gate -->
  <line x1="142.1" y1="212.5" x2="135.3" y2="226.9" stroke="#22c55e" stroke-width="3" stroke-linecap="round" />
  <circle cx="138.7" cy="219.7" r="3.5" fill="#ffffff" stroke="#22c55e" stroke-width="1.5" />
</svg>