<svg xmlns="http://www.w3.org/2000/svg" viewBox="0 0 400 260" width="100%" height="100%" class="circuit-miniature">
  <defs>
    <filter id="glow-gt" x="-20%" y="-20%" width="140%" height="140%">
      <feGaussianBlur stdDeviation="4" result="blur" />
      <feMerge>
        <feMergeNode in="blur" />
        <feMergeNode in="SourceGraphic" />
      </feMerge>
    </filter>
  </defs>
  <!-- Background Grid Accent -->
  <rect width="400" height="260" fill="#0b0f19" rx="12" />
  <path d="M 0 65 H 400 M 0 130 H 400 M 0 195 H 400 M 100 0 V 260 M 200 0 V 260 M 300 0 V 260" stroke="#1e293b" stroke-width="0.75" stroke-dasharray="3 3" opacity="0.4" />

  <!-- Outer Glow Track -->
  <path d="M 107.8 179.2 L 113.0 179.5 L 118.3 179.7 L 123.8 179.8 L 129.1 179.6 L 134.4 179.3 L 139.5 178.6 L 144.3 177.6 L 148.8 176.1 L 152.8 174.2 L 156.5 171.6 L 159.9 168.7 L 163.1 165.6 L 166.2 162.2 L 169.2 158.9 L 172.3 155.6 L 175.4 152.6 L 178.6 149.7 L 181.7 146.8 L 184.8 144.0 L 187.8 141.2 L 190.9 138.4 L 193.9 135.6 L 196.9 132.8 L 200.0 130.0 L 203.1 127.2 L 206.1 124.4 L 209.1 121.6 L 212.2 118.8 L 215.2 116.0 L 218.3 113.2 L 221.4 110.3 L 224.6 107.5 L 227.7 104.4 L 230.8 101.1 L 233.8 97.8 L 236.9 94.4 L 240.1 91.3 L 243.5 88.4 L 247.2 85.8 L 251.2 83.9 L 255.7 82.4 L 260.5 81.4 L 265.6 80.7 L 270.9 80.4 L 276.2 80.2 L 281.7 80.3 L 287.0 80.5 L 292.2 80.8 L 297.5 81.2 L 302.9 81.7 L 308.3 82.4 L 313.7 83.3 L 319.0 84.4 L 324.1 85.7 L 328.9 87.2 L 333.2 89.0 L 337.3 91.2 L 341.2 93.7 L 344.9 96.6 L 348.3 99.6 L 351.4 102.8 L 354.3 105.9 L 356.8 108.8 L 358.9 111.5 L 360.6 114.1 L 361.8 116.5 L 362.7 118.8 L 363.4 121.0 L 363.7 123.3 L 363.9 125.5 L 364.0 127.7 L 364.0 130.0 L 364.0 132.3 L 363.9 134.5 L 363.7 136.7 L 363.4 139.0 L 362.7 141.2 L 361.8 143.5 L 360.6 145.9 L 358.9 148.4 L 356.8 151.2 L 354.3 154.1 L 351.4 157.2 L 348.3 160.4 L 344.9 163.4 L 341.2 166.3 L 337.3 168.8 L 333.2 171.0 L 328.9 172.8 L 324.1 174.3 L 319.0 175.6 L 313.7 176.7 L 308.3 177.6 L 302.9 178.3 L 297.5 178.8 L 292.2 179.2 L 287.0 179.5 L 281.7 179.7 L 276.2 179.8 L 270.9 179.6 L 265.6 179.3 L 260.5 178.6 L 255.7 177.6 L 251.2 176.1 L 247.2 174.2 L 243.5 171.6 L 240.1 168.7 L 236.9 165.6 L 233.8 162.2 L 230.8 158.9 L 227.7 155.6 L 224.6 152.6 L 221.4 149.7 L 218.3 146.8 L 215.2 144.0 L 212.2 141.2 L 209.1 138.4 L 206.1 135.6 L 203.1 132.8 L 200.0 130.0 L 196.9 127.2 L 193.9 124.4 L 190.9 121.6 L 187.8 118.8 L 184.8 116.0 L 181.7 113.2 L 178.6 110.3 L 175.4 107.5 L 172.3 104.4 L 169.2 101.1 L 166.2 97.8 L 163.1 94.4 L 159.9 91.3 L 156.5 88.4 L 152.8 85.8 L 148.8 83.9 L 144.3 82.4 L 139.5 81.4 L 134.4 80.7 L 129.1 80.4 L 123.8 80.2 L 118.3 80.3 L 113.0 80.5 L 107.8 80.8 L 102.5 81.2 L 97.1 81.7 L 91.7 82.4 L 86.3 83.3 L 81.0 84.4 L 75.9 85.7 L 71.1 87.2 L 66.8 89.0 L 62.7 91.2 L 58.8 93.7 L 55.1 96.6 L 51.7 99.6 L 48.6 102.8 L 45.7 105.9 L 43.2 108.8 L 41.1 111.5 L 39.4 114.1 L 38.2 116.5 L 37.3 118.8 L 36.6 121.0 L 36.3 123.3 L 36.1 125.5 L 36.0 127.7 L 36.0 130.0 L 36.0 132.3 L 36.1 134.5 L 36.3 136.7 L 36.6 139.0 L 37.3 141.2 L 38.2 143.5 L 39.4 145.9 L 41.1 148.4 L 43.2 151.2 L 45.7 154.1 L 48.6 157.2 L 51.7 160.4 L 55.1 163.4 L 58.8 166.3 L 62.7 168.8 L 66.8 171.0 L 71.1 172.8 L 75.9 174.3 L 81.0 175.6 L 86.3 176.7 L 91.7 177.6 L 97.1 178.3 L 102.5 178.8 L 107.8 179.2 Z" fill="none" stroke="#2563eb" stroke-width="9" stroke-linecap="round" stroke-linejoin="round" opacity="0.3" filter="url(#glow-gt)" />

  <!-- Track Base Asphalt Ribbon -->
  <path d="M 107.8 179.2 L 113.0 179.5 L 118.3 179.7 L 123.8 179.8 L 129.1 179.6 L 134.4 179.3 L 139.5 178.6 L 144.3 177.6 L 148.8 176.1 L 152.8 174.2 L 156.5 171.6 L 159.9 168.7 L 163.1 165.6 L 166.2 162.2 L 169.2 158.9 L 172.3 155.6 L 175.4 152.6 L 178.6 149.7 L 181.7 146.8 L 184.8 144.0 L 187.8 141.2 L 190.9 138.4 L 193.9 135.6 L 196.9 132.8 L 200.0 130.0 L 203.1 127.2 L 206.1 124.4 L 209.1 121.6 L 212.2 118.8 L 215.2 116.0 L 218.3 113.2 L 221.4 110.3 L 224.6 107.5 L 227.7 104.4 L 230.8 101.1 L 233.8 97.8 L 236.9 94.4 L 240.1 91.3 L 243.5 88.4 L 247.2 85.8 L 251.2 83.9 L 255.7 82.4 L 260.5 81.4 L 265.6 80.7 L 270.9 80.4 L 276.2 80.2 L 281.7 80.3 L 287.0 80.5 L 292.2 80.8 L 297.5 81.2 L 302.9 81.7 L 308.3 82.4 L 313.7 83.3 L 319.0 84.4 L 324.1 85.7 L 328.9 87.2 L 333.2 89.0 L 337.3 91.2 L 341.2 93.7 L 344.9 96.6 L 348.3 99.6 L 351.4 102.8 L 354.3 105.9 L 356.8 108.8 L 358.9 111.5 L 360.6 114.1 L 361.8 116.5 L 362.7 118.8 L 363.4 121.0 L 363.7 123.3 L 363.9 125.5 L 364.0 127.7 L 364.0 130.0 L 364.0 132.3 L 363.9 134.5 L 363.7 136.7 L 363.4 139.0 L 362.7 141.2 L 361.8 143.5 L 360.6 145.9 L 358.9 148.4 L 356.8 151.2 L 354.3 154.1 L 351.4 157.2 L 348.3 160.4 L 344.9 163.4 L 341.2 166.3 L 337.3 168.8 L 333.2 171.0 L 328.9 172.8 L 324.1 174.3 L 319.0 175.6 L 313.7 176.7 L 308.3 177.6 L 302.9 178.3 L 297.5 178.8 L 292.2 179.2 L 287.0 179.5 L 281.7 179.7 L 276.2 179.8 L 270.9 179.6 L 265.6 179.3 L 260.5 178.6 L 255.7 177.6 L 251.2 176.1 L 247.2 174.2 L 243.5 171.6 L 240.1 168.7 L 236.9 165.6 L 233.8 162.2 L 230.8 158.9 L 227.7 155.6 L 224.6 152.6 L 221.4 149.7 L 218.3 146.8 L 215.2 144.0 L 212.2 141.2 L 209.1 138.4 L 206.1 135.6 L 203.1 132.8 L 200.0 130.0 L 196.9 127.2 L 193.9 124.4 L 190.9 121.6 L 187.8 118.8 L 184.8 116.0 L 181.7 113.2 L 178.6 110.3 L 175.4 107.5 L 172.3 104.4 L 169.2 101.1 L 166.2 97.8 L 163.1 94.4 L 159.9 91.3 L 156.5 88.4 L 152.8 85.8 L 148.8 83.9 L 144.3 82.4 L 139.5 81.4 L 134.4 80.7 L 129.1 80.4 L 123.8 80.2 L 118.3 80.3 L 113.0 80.5 L 107.8 80.8 L 102.5 81.2 L 97.1 81.7 L 91.7 82.4 L 86.3 83.3 L 81.0 84.4 L 75.9 85.7 L 71.1 87.2 L 66.8 89.0 L 62.7 91.2 L 58.8 93.7 L 55.1 96.6 L 51.7 99.6 L 48.6 102.8 L 45.7 105.9 L 43.2 108.8 L 41.1 111.5 L 39.4 114.1 L 38.2 116.5 L 37.3 118.8 L 36.6 121.0 L 36.3 123.3 L 36.1 125.5 L 36.0 127.7 L 36.0 130.0 L 36.0 132.3 L 36.1 134.5 L 36.3 136.7 L 36.6 139.0 L 37.3 141.2 L 38.2 143.5 L 39.4 145.9 L 41.1 148.4 L 43.2 151.2 L 45.7 154.1 L 48.6 157.2 L 51.7 160.4 L 55.1 163.4 L 58.8 166.3 L 62.7 168.8 L 66.8 171.0 L 71.1 172.8 L 75.9 174.3 L 81.0 175.6 L 86.3 176.7 L 91.7 177.6 L 97.1 178.3 L 102.5 178.8 L 107.8 179.2 Z" fill="none" stroke="#1e293b" stroke-width="6" stroke-linecap="round" stroke-linejoin="round" />

  <!-- Track Main Neon Racing Line -->
  <path d="M 107.8 179.2 L 113.0 179.5 L 118.3 179.7 L 123.8 179.8 L 129.1 179.6 L 134.4 179.3 L 139.5 178.6 L 144.3 177.6 L 148.8 176.1 L 152.8 174.2 L 156.5 171.6 L 159.9 168.7 L 163.1 165.6 L 166.2 162.2 L 169.2 158.9 L 172.3 155.6 L 175.4 152.6 L 178.6 149.7 L 181.7 146.8 L 184.8 144.0 L 187.8 141.2 L 190.9 138.4 L 193.9 135.6 L 196.9 132.8 L 200.0 130.0 L 203.1 127.2 L 206.1 124.4 L 209.1 121.6 L 212.2 118.8 L 215.2 116.0 L 218.3 113.2 L 221.4 110.3 L 224.6 107.5 L 227.7 104.4 L 230.8 101.1 L 233.8 97.8 L 236.9 94.4 L 240.1 91.3 L 243.5 88.4 L 247.2 85.8 L 251.2 83.9 L 255.7 82.4 L 260.5 81.4 L 265.6 80.7 L 270.9 80.4 L 276.2 80.2 L 281.7 80.3 L 287.0 80.5 L 292.2 80.8 L 297.5 81.2 L 302.9 81.7 L 308.3 82.4 L 313.7 83.3 L 319.0 84.4 L 324.1 85.7 L 328.9 87.2 L 333.2 89.0 L 337.3 91.2 L 341.2 93.7 L 344.9 96.6 L 348.3 99.6 L 351.4 102.8 L 354.3 105.9 L 356.8 108.8 L 358.9 111.5 L 360.6 114.1 L 361.8 116.5 L 362.7 118.8 L 363.4 121.0 L 363.7 123.3 L 363.9 125.5 L 364.0 127.7 L 364.0 130.0 L 364.0 132.3 L 363.9 134.5 L 363.7 136.7 L 363.4 139.0 L 362.7 141.2 L 361.8 143.5 L 360.6 145.9 L 358.9 148.4 L 356.8 151.2 L 354.3 154.1 L 351.4 157.2 L 348.3 160.4 L 344.9 163.4 L 341.2 166.3 L 337.3 168.8 L 333.2 171.0 L 328.9 172.8 L 324.1 174.3 L 319.0 175.6 L 313.7 176.7 L 308.3 177.6 L 302.9 178.3 L 297.5 178.8 L 292.2 179.2 L 287.0 179.5 L 281.7 179.7 L 276.2 179.8 L 270.9 179.6 L 265.6 179.3 L 260.5 178.6 L 255.7 177.6 L 251.2 176.1 L 247.2 174.2 L 243.5 171.6 L 240.1 168.7 L 236.9 165.6 L 233.8 162.2 L 230.8 158.9 L 227.7 155.6 L 224.6 152.6 L 221.4 149.7 L 218.3 146.8 L 215.2 144.0 L 212.2 141.2 L 209.1 138.4 L 206.1 135.6 L 203.1 132.8 L 200.0 130.0 L 196.9 127.2 L 193.9 124.4 L 190.9 121.6 L 187.8 118.8 L 184.8 116.0 L 181.7 113.2 L 178.6 110.3 L 175.4 107.5 L 172.3 104.4 L 169.2 101.1 L 166.2 97.8 L 163.1 94.4 L 159.9 91.3 L 156.5 88.4 L 152.8 85.8 L 148.8 83.9 L 144.3 82.4 L 139.5 81.4 L 134.4 80.7 L 129.1 80.4 L 123.8 80.2 L 118.3 80.3 L 113.0 80.5 L 107.8 80.8 L 102.5 81.2 L 97.1 81.7 L 91.7 82.4 L 86.3 83.3 L 81.0 84.4 L 75.9 85.7 L 71.1 87.2 L 66.8 89.0 L 62.7 91.2 L 58.8 93.7 L 55.1 96.6 L 51.7 99.6 L 48.6 102.8 L 45.7 105.9 L 43.2 108.8 L 41.1 111.5 L 39.4 114.1 L 38.2 116.5 L 37.3 118.8 L 36.6 121.0 L 36.3 123.3 L 36.1 125.5 L 36.0 127.7 L 36.0 130.0 L 36.0 132.3 L 36.1 134.5 L 36.3 136.7 L 36.6 139.0 L 37.3 141.2 L 38.2 143.5 L 39.4 145.9 L 41.1 148.4 L 43.2 151.2 L 45.7 154.1 L 48.6 157.2 L 51.7 160.4 L 55.1 163.4 L 58.8 166.3 L 62.7 168.8 L 66.8 171.0 L 71.1 172.8 L 75.9 174.3 L 81.0 175.6 L 86.3 176.7 L 91.7 177.6 L 97.1 178.3 L 102.5 178.8 L 107.8 179.2 Z" fill="none" stroke="#3b82f6" stroke-width="2.2" stroke-linecap="round" stroke-linejoin="round" />

  <!-- Start/Finish Timing Gate -->
  <line x1="108.3" y1="171.2" x2="107.3" y2="187.2" stroke="#22c55e" stroke-width="3" stroke-linecap="round" />
  <circle cx="107.8" cy="179.2" r="3.5" fill="#ffffff" stroke="#22c55e" stroke-width="1.5" />
</svg>