<svg xmlns="http://www.w3.org/2000/svg" viewBox="0 0 400 260" width="100%" height="100%" class="circuit-miniature">
  <defs>
    <filter id="glow-gt" x="-20%" y="-20%" width="140%" height="140%">
      <feGaussianBlur stdDeviation="4" result="blur" />
      <feMerge>
        <feMergeNode in="blur" />
        <feMergeNode in="SourceGraphic" />
      </feMerge>
    </filter>
  </defs>
  <!-- Background Grid Accent -->
  <rect width="400" height="260" fill="#0b0f19" rx="12" />
  <path d="M 0 65 H 400 M 0 130 H 400 M 0 195 H 400 M 100 0 V 260 M 200 0 V 260 M 300 0 V 260" stroke="#1e293b" stroke-width="0.75" stroke-dasharray="3 3" opacity="0.4" />

  <!-- Outer Glow Track -->
  <path d="M 112.5 76.8 L 113.4 75.2 L 115.1 74.1 L 117.4 73.4 L 120.0 73.2 L 122.8 73.4 L 125.6 74.1 L 128.2 75.3 L 130.3 76.8 L 132.1 79.0 L 133.9 82.0 L 135.6 85.5 L 137.1 89.4 L 138.6 93.5 L 140.0 97.6 L 141.2 101.6 L 142.3 105.3 L 143.2 108.8 L 143.8 112.5 L 144.3 116.2 L 144.7 119.9 L 145.1 123.4 L 145.5 126.6 L 146.2 129.5 L 147.1 131.9 L 148.3 134.0 L 149.5 135.9 L 151.0 137.6 L 152.5 139.0 L 154.1 139.9 L 155.9 140.4 L 157.7 140.3 L 159.6 139.6 L 161.5 137.9 L 163.5 135.4 L 165.5 132.2 L 167.7 128.6 L 170.0 124.7 L 172.4 121.0 L 174.9 117.5 L 177.6 114.5 L 180.5 112.1 L 183.8 110.0 L 187.3 108.1 L 190.9 106.3 L 194.5 104.5 L 197.9 102.6 L 201.0 100.4 L 203.7 97.9 L 206.0 95.0 L 208.0 91.8 L 209.6 88.3 L 211.1 84.8 L 212.6 81.1 L 214.1 77.6 L 215.8 74.1 L 217.7 70.8 L 219.9 67.7 L 222.1 64.5 L 224.3 61.3 L 226.7 58.2 L 229.2 55.3 L 231.8 52.5 L 234.5 49.9 L 237.4 47.6 L 240.5 45.4 L 244.0 43.1 L 247.6 41.0 L 251.4 39.0 L 255.1 37.5 L 258.6 36.4 L 261.9 36.0 L 264.9 36.3 L 267.5 37.6 L 270.0 39.7 L 272.2 42.4 L 274.3 45.6 L 276.2 49.2 L 278.0 52.9 L 279.6 56.6 L 281.1 60.1 L 282.5 63.7 L 283.8 67.4 L 285.1 71.4 L 286.1 75.4 L 287.0 79.4 L 287.5 83.3 L 287.6 87.0 L 287.2 90.5 L 286.3 93.8 L 284.9 97.2 L 283.1 100.5 L 281.0 103.7 L 278.7 106.5 L 276.2 109.0 L 273.6 111.0 L 271.1 112.4 L 268.1 113.1 L 264.6 113.4 L 260.7 113.2 L 256.8 112.6 L 253.2 111.6 L 250.1 110.3 L 247.8 108.7 L 246.6 106.8 L 246.9 104.4 L 248.5 101.4 L 251.1 97.8 L 254.1 94.1 L 257.2 90.3 L 259.9 86.6 L 261.8 83.3 L 262.6 80.5 L 262.1 78.1 L 260.9 75.7 L 259.2 73.4 L 256.9 71.4 L 254.4 69.8 L 251.7 68.6 L 249.0 68.0 L 246.4 68.1 L 243.8 69.0 L 240.9 70.8 L 237.9 73.1 L 234.8 75.8 L 231.6 78.9 L 228.5 82.1 L 225.6 85.2 L 222.8 88.2 L 220.2 91.0 L 217.6 93.9 L 215.1 96.9 L 212.7 100.0 L 210.4 103.1 L 208.1 106.3 L 206.0 109.5 L 203.9 112.8 L 201.9 116.2 L 200.1 119.8 L 198.5 123.5 L 196.9 127.2 L 195.3 130.8 L 193.6 134.3 L 191.9 137.6 L 189.9 140.5 L 187.5 143.0 L 184.5 145.2 L 181.3 147.1 L 178.1 148.9 L 175.2 150.6 L 172.8 152.4 L 171.3 154.3 L 170.9 156.4 L 171.8 158.8 L 173.8 161.2 L 176.6 163.7 L 179.9 166.3 L 183.6 168.9 L 187.4 171.5 L 190.9 174.2 L 194.1 176.8 L 197.1 179.4 L 200.6 181.9 L 204.2 184.5 L 207.7 187.2 L 210.8 189.8 L 213.4 192.5 L 215.2 195.2 L 216.0 197.9 L 215.8 200.9 L 214.5 204.2 L 212.6 207.5 L 210.1 210.9 L 207.1 214.1 L 204.0 217.0 L 200.8 219.4 L 197.7 221.2 L 194.4 222.4 L 190.8 223.3 L 186.8 223.9 L 182.8 224.0 L 178.7 223.8 L 174.9 223.1 L 171.4 222.1 L 168.3 220.6 L 165.7 218.5 L 163.4 215.9 L 161.4 212.7 L 159.6 209.2 L 158.0 205.4 L 156.4 201.6 L 154.9 197.8 L 153.3 194.2 L 151.8 190.6 L 150.5 187.0 L 149.2 183.4 L 147.9 179.7 L 146.8 176.0 L 145.6 172.2 L 144.4 168.5 L 143.1 164.8 L 141.9 161.2 L 140.6 157.5 L 139.3 153.8 L 138.0 150.2 L 136.8 146.5 L 135.5 142.8 L 134.2 139.1 L 132.9 135.5 L 131.7 131.8 L 130.4 128.1 L 129.1 124.5 L 127.8 120.8 L 126.5 117.1 L 125.3 113.5 L 124.0 109.8 L 122.7 106.1 L 121.3 102.3 L 119.5 98.1 L 117.7 93.9 L 115.9 89.7 L 114.3 85.7 L 113.1 82.1 L 112.4 79.1 L 112.5 76.8 Z" fill="none" stroke="#2563eb" stroke-width="9" stroke-linecap="round" stroke-linejoin="round" opacity="0.3" filter="url(#glow-gt)" />

  <!-- Track Base Asphalt Ribbon -->
  <path d="M 112.5 76.8 L 113.4 75.2 L 115.1 74.1 L 117.4 73.4 L 120.0 73.2 L 122.8 73.4 L 125.6 74.1 L 128.2 75.3 L 130.3 76.8 L 132.1 79.0 L 133.9 82.0 L 135.6 85.5 L 137.1 89.4 L 138.6 93.5 L 140.0 97.6 L 141.2 101.6 L 142.3 105.3 L 143.2 108.8 L 143.8 112.5 L 144.3 116.2 L 144.7 119.9 L 145.1 123.4 L 145.5 126.6 L 146.2 129.5 L 147.1 131.9 L 148.3 134.0 L 149.5 135.9 L 151.0 137.6 L 152.5 139.0 L 154.1 139.9 L 155.9 140.4 L 157.7 140.3 L 159.6 139.6 L 161.5 137.9 L 163.5 135.4 L 165.5 132.2 L 167.7 128.6 L 170.0 124.7 L 172.4 121.0 L 174.9 117.5 L 177.6 114.5 L 180.5 112.1 L 183.8 110.0 L 187.3 108.1 L 190.9 106.3 L 194.5 104.5 L 197.9 102.6 L 201.0 100.4 L 203.7 97.9 L 206.0 95.0 L 208.0 91.8 L 209.6 88.3 L 211.1 84.8 L 212.6 81.1 L 214.1 77.6 L 215.8 74.1 L 217.7 70.8 L 219.9 67.7 L 222.1 64.5 L 224.3 61.3 L 226.7 58.2 L 229.2 55.3 L 231.8 52.5 L 234.5 49.9 L 237.4 47.6 L 240.5 45.4 L 244.0 43.1 L 247.6 41.0 L 251.4 39.0 L 255.1 37.5 L 258.6 36.4 L 261.9 36.0 L 264.9 36.3 L 267.5 37.6 L 270.0 39.7 L 272.2 42.4 L 274.3 45.6 L 276.2 49.2 L 278.0 52.9 L 279.6 56.6 L 281.1 60.1 L 282.5 63.7 L 283.8 67.4 L 285.1 71.4 L 286.1 75.4 L 287.0 79.4 L 287.5 83.3 L 287.6 87.0 L 287.2 90.5 L 286.3 93.8 L 284.9 97.2 L 283.1 100.5 L 281.0 103.7 L 278.7 106.5 L 276.2 109.0 L 273.6 111.0 L 271.1 112.4 L 268.1 113.1 L 264.6 113.4 L 260.7 113.2 L 256.8 112.6 L 253.2 111.6 L 250.1 110.3 L 247.8 108.7 L 246.6 106.8 L 246.9 104.4 L 248.5 101.4 L 251.1 97.8 L 254.1 94.1 L 257.2 90.3 L 259.9 86.6 L 261.8 83.3 L 262.6 80.5 L 262.1 78.1 L 260.9 75.7 L 259.2 73.4 L 256.9 71.4 L 254.4 69.8 L 251.7 68.6 L 249.0 68.0 L 246.4 68.1 L 243.8 69.0 L 240.9 70.8 L 237.9 73.1 L 234.8 75.8 L 231.6 78.9 L 228.5 82.1 L 225.6 85.2 L 222.8 88.2 L 220.2 91.0 L 217.6 93.9 L 215.1 96.9 L 212.7 100.0 L 210.4 103.1 L 208.1 106.3 L 206.0 109.5 L 203.9 112.8 L 201.9 116.2 L 200.1 119.8 L 198.5 123.5 L 196.9 127.2 L 195.3 130.8 L 193.6 134.3 L 191.9 137.6 L 189.9 140.5 L 187.5 143.0 L 184.5 145.2 L 181.3 147.1 L 178.1 148.9 L 175.2 150.6 L 172.8 152.4 L 171.3 154.3 L 170.9 156.4 L 171.8 158.8 L 173.8 161.2 L 176.6 163.7 L 179.9 166.3 L 183.6 168.9 L 187.4 171.5 L 190.9 174.2 L 194.1 176.8 L 197.1 179.4 L 200.6 181.9 L 204.2 184.5 L 207.7 187.2 L 210.8 189.8 L 213.4 192.5 L 215.2 195.2 L 216.0 197.9 L 215.8 200.9 L 214.5 204.2 L 212.6 207.5 L 210.1 210.9 L 207.1 214.1 L 204.0 217.0 L 200.8 219.4 L 197.7 221.2 L 194.4 222.4 L 190.8 223.3 L 186.8 223.9 L 182.8 224.0 L 178.7 223.8 L 174.9 223.1 L 171.4 222.1 L 168.3 220.6 L 165.7 218.5 L 163.4 215.9 L 161.4 212.7 L 159.6 209.2 L 158.0 205.4 L 156.4 201.6 L 154.9 197.8 L 153.3 194.2 L 151.8 190.6 L 150.5 187.0 L 149.2 183.4 L 147.9 179.7 L 146.8 176.0 L 145.6 172.2 L 144.4 168.5 L 143.1 164.8 L 141.9 161.2 L 140.6 157.5 L 139.3 153.8 L 138.0 150.2 L 136.8 146.5 L 135.5 142.8 L 134.2 139.1 L 132.9 135.5 L 131.7 131.8 L 130.4 128.1 L 129.1 124.5 L 127.8 120.8 L 126.5 117.1 L 125.3 113.5 L 124.0 109.8 L 122.7 106.1 L 121.3 102.3 L 119.5 98.1 L 117.7 93.9 L 115.9 89.7 L 114.3 85.7 L 113.1 82.1 L 112.4 79.1 L 112.5 76.8 Z" fill="none" stroke="#1e293b" stroke-width="6" stroke-linecap="round" stroke-linejoin="round" />

  <!-- Track Main Neon Racing Line -->
  <path d="M 112.5 76.8 L 113.4 75.2 L 115.1 74.1 L 117.4 73.4 L 120.0 73.2 L 122.8 73.4 L 125.6 74.1 L 128.2 75.3 L 130.3 76.8 L 132.1 79.0 L 133.9 82.0 L 135.6 85.5 L 137.1 89.4 L 138.6 93.5 L 140.0 97.6 L 141.2 101.6 L 142.3 105.3 L 143.2 108.8 L 143.8 112.5 L 144.3 116.2 L 144.7 119.9 L 145.1 123.4 L 145.5 126.6 L 146.2 129.5 L 147.1 131.9 L 148.3 134.0 L 149.5 135.9 L 151.0 137.6 L 152.5 139.0 L 154.1 139.9 L 155.9 140.4 L 157.7 140.3 L 159.6 139.6 L 161.5 137.9 L 163.5 135.4 L 165.5 132.2 L 167.7 128.6 L 170.0 124.7 L 172.4 121.0 L 174.9 117.5 L 177.6 114.5 L 180.5 112.1 L 183.8 110.0 L 187.3 108.1 L 190.9 106.3 L 194.5 104.5 L 197.9 102.6 L 201.0 100.4 L 203.7 97.9 L 206.0 95.0 L 208.0 91.8 L 209.6 88.3 L 211.1 84.8 L 212.6 81.1 L 214.1 77.6 L 215.8 74.1 L 217.7 70.8 L 219.9 67.7 L 222.1 64.5 L 224.3 61.3 L 226.7 58.2 L 229.2 55.3 L 231.8 52.5 L 234.5 49.9 L 237.4 47.6 L 240.5 45.4 L 244.0 43.1 L 247.6 41.0 L 251.4 39.0 L 255.1 37.5 L 258.6 36.4 L 261.9 36.0 L 264.9 36.3 L 267.5 37.6 L 270.0 39.7 L 272.2 42.4 L 274.3 45.6 L 276.2 49.2 L 278.0 52.9 L 279.6 56.6 L 281.1 60.1 L 282.5 63.7 L 283.8 67.4 L 285.1 71.4 L 286.1 75.4 L 287.0 79.4 L 287.5 83.3 L 287.6 87.0 L 287.2 90.5 L 286.3 93.8 L 284.9 97.2 L 283.1 100.5 L 281.0 103.7 L 278.7 106.5 L 276.2 109.0 L 273.6 111.0 L 271.1 112.4 L 268.1 113.1 L 264.6 113.4 L 260.7 113.2 L 256.8 112.6 L 253.2 111.6 L 250.1 110.3 L 247.8 108.7 L 246.6 106.8 L 246.9 104.4 L 248.5 101.4 L 251.1 97.8 L 254.1 94.1 L 257.2 90.3 L 259.9 86.6 L 261.8 83.3 L 262.6 80.5 L 262.1 78.1 L 260.9 75.7 L 259.2 73.4 L 256.9 71.4 L 254.4 69.8 L 251.7 68.6 L 249.0 68.0 L 246.4 68.1 L 243.8 69.0 L 240.9 70.8 L 237.9 73.1 L 234.8 75.8 L 231.6 78.9 L 228.5 82.1 L 225.6 85.2 L 222.8 88.2 L 220.2 91.0 L 217.6 93.9 L 215.1 96.9 L 212.7 100.0 L 210.4 103.1 L 208.1 106.3 L 206.0 109.5 L 203.9 112.8 L 201.9 116.2 L 200.1 119.8 L 198.5 123.5 L 196.9 127.2 L 195.3 130.8 L 193.6 134.3 L 191.9 137.6 L 189.9 140.5 L 187.5 143.0 L 184.5 145.2 L 181.3 147.1 L 178.1 148.9 L 175.2 150.6 L 172.8 152.4 L 171.3 154.3 L 170.9 156.4 L 171.8 158.8 L 173.8 161.2 L 176.6 163.7 L 179.9 166.3 L 183.6 168.9 L 187.4 171.5 L 190.9 174.2 L 194.1 176.8 L 197.1 179.4 L 200.6 181.9 L 204.2 184.5 L 207.7 187.2 L 210.8 189.8 L 213.4 192.5 L 215.2 195.2 L 216.0 197.9 L 215.8 200.9 L 214.5 204.2 L 212.6 207.5 L 210.1 210.9 L 207.1 214.1 L 204.0 217.0 L 200.8 219.4 L 197.7 221.2 L 194.4 222.4 L 190.8 223.3 L 186.8 223.9 L 182.8 224.0 L 178.7 223.8 L 174.9 223.1 L 171.4 222.1 L 168.3 220.6 L 165.7 218.5 L 163.4 215.9 L 161.4 212.7 L 159.6 209.2 L 158.0 205.4 L 156.4 201.6 L 154.9 197.8 L 153.3 194.2 L 151.8 190.6 L 150.5 187.0 L 149.2 183.4 L 147.9 179.7 L 146.8 176.0 L 145.6 172.2 L 144.4 168.5 L 143.1 164.8 L 141.9 161.2 L 140.6 157.5 L 139.3 153.8 L 138.0 150.2 L 136.8 146.5 L 135.5 142.8 L 134.2 139.1 L 132.9 135.5 L 131.7 131.8 L 130.4 128.1 L 129.1 124.5 L 127.8 120.8 L 126.5 117.1 L 125.3 113.5 L 124.0 109.8 L 122.7 106.1 L 121.3 102.3 L 119.5 98.1 L 117.7 93.9 L 115.9 89.7 L 114.3 85.7 L 113.1 82.1 L 112.4 79.1 L 112.5 76.8 Z" fill="none" stroke="#3b82f6" stroke-width="2.2" stroke-linecap="round" stroke-linejoin="round" />

  <!-- Start/Finish Timing Gate -->
  <line x1="105.5" y1="72.9" x2="119.5" y2="80.7" stroke="#22c55e" stroke-width="3" stroke-linecap="round" />
  <circle cx="112.5" cy="76.8" r="3.5" fill="#ffffff" stroke="#22c55e" stroke-width="1.5" />
</svg>